<svg width="28" height="28" viewBox="0 0 28 28" fill="none" xmlns="http://www.w3.org/2000/svg">
<path d="M24.8866 19.5196C24.7849 19.4178 24.6438 19.3594 24.5 19.3594C24.3562 19.3594 24.2151 19.4178 24.1134 19.5196C24.0116 19.6214 23.9531 19.7618 23.9531 19.9062C23.9531 20.0501 24.0116 20.1912 24.1134 20.2928C24.2151 20.3946 24.3562 20.4531 24.5 20.4531C24.6438 20.4531 24.7849 20.3946 24.8866 20.2928C24.9884 20.1912 25.0469 20.0501 25.0469 19.9062C25.0469 19.7624 24.9884 19.6213 24.8866 19.5196Z" fill="white"/>
<path d="M27.4531 26.9063H25.0469V21.8203C25.0469 21.5183 24.802 21.2734 24.5 21.2734C24.198 21.2734 23.9531 21.5183 23.9531 21.8203V26.9063H6.67188V21.7656C6.67188 21.4636 6.42698 21.2188 6.125 21.2188C5.82302 21.2188 5.57812 21.4636 5.57812 21.7656V26.9063H4.04688V12.5236L14 4.75318L23.9531 12.5236V17.7188C23.9531 18.0207 24.198 18.2656 24.5 18.2656C24.802 18.2656 25.0469 18.0207 25.0469 17.7188V13.3775L25.1425 13.4521C25.2418 13.5297 25.3606 13.5679 25.4788 13.5679C25.6195 13.5679 25.7596 13.5138 25.8657 13.4077L27.8382 11.4352C27.9489 11.3244 28.0069 11.1714 27.9973 11.015C27.9877 10.8585 27.9115 10.7138 27.788 10.6174L24.5 8.05045V2.57033C24.5 2.26829 24.2551 2.02346 23.9531 2.02346H20.7835C20.4816 2.02346 20.2367 2.26829 20.2367 2.57033V4.72206L14.3365 0.115848C14.1388 -0.0385346 13.8612 -0.0385346 13.6635 0.115848L0.211969 10.6174C0.0884297 10.7138 0.01225 10.8585 0.002625 11.015C-0.00694531 11.1714 0.0510234 11.3243 0.161766 11.4352L2.13429 13.4077C2.32952 13.6029 2.63982 13.6221 2.85753 13.4521L2.95312 13.3775V26.9063H0.546875C0.244891 26.9063 0 27.1511 0 27.4531C0 27.7551 0.244891 28 0.546875 28H27.4531C27.7551 28 28 27.7551 28 27.4531C28 27.1511 27.7551 26.9063 27.4531 26.9063ZM21.3304 3.11721H23.4062V7.19656L21.3304 5.57595V3.11721V3.11721ZM2.56572 12.2923L1.37244 11.099L14 1.24066L26.6276 11.099L25.4343 12.2923L14.3365 3.62832C14.2376 3.5511 14.1188 3.51249 14 3.51249C13.8812 3.51249 13.7623 3.5511 13.6635 3.62832L2.56572 12.2923Z" fill="white"/>
<path d="M19.25 11.9219H8.75C8.44802 11.9219 8.20312 12.1667 8.20312 12.4688V22.9688C8.20312 23.2707 8.44802 23.5156 8.75 23.5156H19.25C19.552 23.5156 19.7969 23.2707 19.7969 22.9688V12.4688C19.7969 12.1667 19.552 11.9219 19.25 11.9219ZM13.4531 22.4219H9.29688V18.2656H13.4531V22.4219ZM13.4531 17.1719H9.29688V13.0156H13.4531V17.1719ZM18.7031 22.4219H14.5469V18.2656H18.7031V22.4219ZM18.7031 17.1719H14.5469V13.0156H18.7031V17.1719Z" fill="white"/>
<path d="M6.125 19.0589C5.82302 19.0589 5.57812 19.3037 5.57812 19.6058V19.6146C5.57812 19.9166 5.82302 20.1615 6.125 20.1615C6.42698 20.1615 6.67188 19.9166 6.67188 19.6146V19.6058C6.67188 19.3038 6.42698 19.0589 6.125 19.0589Z" fill="white"/>
</svg>
