<svg width="28" height="28" viewBox="0 0 28 28" fill="none" xmlns="http://www.w3.org/2000/svg">
<path d="M9.95287 7.58827C9.76726 7.45838 9.51148 7.50366 9.38171 7.68938L8.07829 9.55363L7.23342 8.80271C7.06411 8.65216 6.80483 8.66747 6.65439 8.83678C6.50389 9.00609 6.51915 9.26531 6.68846 9.41581L7.58758 10.215C7.92691 10.5167 8.45109 10.452 8.70894 10.0833L10.054 8.15948C10.1838 7.97381 10.1385 7.71804 9.95287 7.58827Z" fill="white"/>
<path d="M9.95281 13.5798C9.7672 13.4499 9.51143 13.4952 9.38165 13.6809L8.07823 15.5452L7.23342 14.7942C7.06411 14.6436 6.80483 14.659 6.65439 14.8283C6.50389 14.9976 6.51915 15.2568 6.68846 15.4073L7.58763 16.2066C7.92713 16.5083 8.45115 16.4433 8.70889 16.0748L10.054 14.151C10.1838 13.9652 10.1385 13.7095 9.95281 13.5798V13.5798Z" fill="white"/>
<path d="M9.95287 19.4909C9.76726 19.3611 9.51148 19.4063 9.38171 19.592L8.07829 21.4562L7.23342 20.7053C7.06411 20.5548 6.80483 20.5701 6.65439 20.7394C6.50389 20.9087 6.51915 21.1679 6.68846 21.3184L7.58758 22.1176C7.92691 22.4193 8.45109 22.3546 8.70894 21.9859L10.054 20.0621C10.1838 19.8764 10.1385 19.6207 9.95287 19.4909Z" fill="white"/>
<path d="M17.8931 7.72974H12.0967C11.8702 7.72974 11.6865 7.91332 11.6865 8.13989C11.6865 8.36646 11.8702 8.55005 12.0967 8.55005H17.8931C18.1196 8.55005 18.3032 8.36646 18.3032 8.13989C18.3032 7.91332 18.1196 7.72974 17.8931 7.72974V7.72974Z" fill="white"/>
<path d="M17.8931 9.55255H12.0967C11.8702 9.55255 11.6865 9.73614 11.6865 9.96271C11.6865 10.1893 11.8702 10.3729 12.0967 10.3729H17.8931C18.1196 10.3729 18.3032 10.1893 18.3032 9.96271C18.3032 9.73614 18.1196 9.55255 17.8931 9.55255V9.55255Z" fill="white"/>
<path d="M18.3033 14C18.3033 13.7734 18.1197 13.5898 17.8931 13.5898H12.0967C11.8702 13.5898 11.6865 13.7734 11.6865 14C11.6865 14.2266 11.8702 14.4102 12.0967 14.4102H17.8931C18.1196 14.4102 18.3033 14.2266 18.3033 14V14Z" fill="white"/>
<path d="M12.0967 15.4127C11.8702 15.4127 11.6865 15.5962 11.6865 15.8228C11.6865 16.0494 11.8702 16.233 12.0967 16.233H14.9948C15.2214 16.233 15.405 16.0494 15.405 15.8228C15.405 15.5962 15.2214 15.4127 14.9948 15.4127H12.0967Z" fill="white"/>
<path d="M25.3773 8.42034C24.6554 7.84186 23.6033 7.95796 23.025 8.67956C22.6108 9.19641 12.9733 21.221 12.2194 22.1617C12.1674 22.2265 12.2462 22.0941 10.8112 24.9684H4.95392C4.85198 24.9684 4.76908 24.8855 4.76908 24.7836V4.07745H7.47682V4.35405C7.47682 4.92237 7.9392 5.3847 8.50746 5.3847H16.3456C16.914 5.3847 17.3763 4.92237 17.3763 4.35405V4.07745H20.084V10.3445C20.084 10.5711 20.2676 10.7547 20.4942 10.7547C20.7208 10.7547 20.9044 10.5711 20.9044 10.3445V4.07745H21.5448C21.816 4.07745 22.0367 4.29811 22.0367 4.5693V7.90234C22.0367 8.12891 22.2202 8.3125 22.4468 8.3125C22.6734 8.3125 22.857 8.12891 22.857 7.90234V4.5693C22.857 3.84579 22.2683 3.25713 21.5448 3.25713H17.3264C17.142 2.50759 16.4645 1.94988 15.6589 1.94988H14.8696C14.7339 1.94988 14.6235 1.83947 14.6235 1.70379C14.6235 0.764312 13.8592 0 12.9198 0H11.9334C10.9939 0 10.2296 0.764312 10.2296 1.70373C10.2296 1.83941 10.1192 1.94983 9.98353 1.94983H9.19423C8.38857 1.94983 7.7111 2.50753 7.5267 3.25708H3.30827C2.58475 3.25708 1.99609 3.84573 1.99609 4.56925V26.6878C1.99609 27.4113 2.58475 27.9999 3.30827 27.9999H21.5447C22.2683 27.9999 22.8569 27.4113 22.8569 26.6878V16.2376C22.8569 16.0111 22.6733 15.8275 22.4468 15.8275C22.2202 15.8275 22.0366 16.0111 22.0366 16.2376V26.6878C22.0366 26.959 21.8159 27.1797 21.5447 27.1797H3.30827C3.03707 27.1797 2.81641 26.959 2.81641 26.6878V4.5693C2.81641 4.29811 3.03707 4.07745 3.30827 4.07745H3.94877V24.7837C3.94877 25.3379 4.39966 25.7888 4.95392 25.7888H10.6028C10.6387 26.0276 10.7608 26.2527 10.9582 26.4109C11.316 26.6977 11.835 26.6971 12.1922 26.4073L12.9546 25.7888H19.8992C20.4535 25.7888 20.9044 25.3379 20.9044 24.7837V18.6689C20.9044 18.4424 20.7208 18.2588 20.4942 18.2588C20.2676 18.2588 20.084 18.4424 20.084 18.6689V24.7837C20.084 24.8855 20.0011 24.9685 19.8992 24.9685H13.9662C14.8128 24.2773 14.7823 24.3152 14.8308 24.2547C15.5851 23.3137 25.2226 11.289 25.6365 10.7726C26.2135 10.0525 26.0973 8.9973 25.3773 8.42034V8.42034ZM8.29713 3.66729C8.29713 3.17264 8.69958 2.7702 9.19423 2.7702H9.98353C10.5715 2.7702 11.0499 2.29179 11.0499 1.70379C11.0499 1.21669 11.4463 0.820367 11.9334 0.820367H12.9198C13.4069 0.820367 13.8032 1.21669 13.8032 1.70379C13.8032 2.29179 14.2816 2.7702 14.8696 2.7702H15.6589C16.1535 2.7702 16.556 3.17264 16.556 3.66729V4.35405C16.556 4.46999 16.4616 4.56438 16.3456 4.56438H8.50746C8.39147 4.56438 8.29713 4.46999 8.29713 4.35405V3.66729ZM11.6754 25.7702C11.6163 25.8181 11.5305 25.8182 11.4713 25.7709C11.412 25.7233 11.3935 25.6394 11.4273 25.5714L12.6891 23.0377L13.8736 23.987L11.6754 25.7702ZM14.46 23.4056L13.1288 22.3387L21.9084 11.3845L23.2396 12.4515L14.46 23.4056ZM24.9964 10.2595L23.7526 11.8114L22.4214 10.7444L23.6651 9.19259C23.9604 8.82421 24.4971 8.76619 24.8643 9.06046C25.2313 9.35457 25.2906 9.89248 24.9964 10.2595Z" fill="white"/>
</svg>
