<svg width="28" height="28" viewBox="0 0 28 28" fill="none" xmlns="http://www.w3.org/2000/svg">
<path d="M12.2859 16.0078H1.73184C1.24927 16.0078 1.24927 15.2783 1.73184 15.2783H11.2633C11.8057 15.2783 11.8063 14.4582 11.2633 14.4582H2.54041V2.36993H24.8083V14.4582H22.1685C21.6263 14.4582 21.6253 15.2783 22.1685 15.2783H25.7653C26.2476 15.2783 26.2476 16.0078 25.7653 16.0078H21.2192C20.677 16.0078 20.6761 16.8282 21.2192 16.8282H25.7653C26.4185 16.8282 26.95 16.2965 26.95 15.6432C26.95 14.9897 26.4185 14.4582 25.7653 14.4582H25.6286V2.36993H25.7653C26.4185 2.36993 26.95 1.83823 26.95 1.18497C26.95 0.531494 26.4185 0 25.7653 0H1.73184C1.07837 0 0.546875 0.531494 0.546875 1.18497C0.546875 1.83438 1.07217 2.36353 1.72009 2.36993V14.4582C1.07217 14.4646 0.546875 14.9936 0.546875 15.6432C0.546875 16.2965 1.07837 16.8282 1.73184 16.8282H12.2859C12.8281 16.8282 12.8289 16.0078 12.2859 16.0078V16.0078ZM1.73184 0.820313H25.7653C26.2476 0.820313 26.2476 1.54962 25.7653 1.54962H1.73184C1.24905 1.54962 1.24969 0.820313 1.73184 0.820313V0.820313Z" fill="white"/>
<path d="M7.60571 3.85355C7.60571 3.49338 7.31262 3.2005 6.95245 3.2005H4.37766C4.01749 3.2005 3.72461 3.49338 3.72461 3.85355V5.44418C3.72461 5.80435 4.01749 6.09723 4.37766 6.09723H6.95245C7.31262 6.09723 7.60571 5.80435 7.60571 5.44418V3.85355ZM6.7854 5.27691H4.54471V4.0206H6.7854V5.27691Z" fill="white"/>
<path d="M7.60571 7.65451C7.60571 7.29434 7.31262 7.00146 6.95245 7.00146H4.37766C4.01749 7.00146 3.72461 7.29434 3.72461 7.65451V9.24515C3.72461 9.60532 4.01749 9.89819 4.37766 9.89819H6.95245C7.31262 9.89819 7.60571 9.60532 7.60571 9.24515V7.65451ZM6.7854 9.07788H4.54471V7.82156H6.7854V9.07788Z" fill="white"/>
<path d="M6.95245 10.8025H4.37766C4.01749 10.8025 3.72461 11.0954 3.72461 11.4555V13.0462C3.72461 13.4063 4.01749 13.6992 4.37766 13.6992H6.95245C7.31262 13.6992 7.60571 13.4063 7.60571 13.0462V11.4555C7.60571 11.0954 7.31262 10.8025 6.95245 10.8025ZM6.7854 12.8791H4.54471V11.6226H6.7854V12.8791Z" fill="white"/>
<path d="M24.9571 18.6364C24.5104 18.4444 24.0419 18.3073 23.5647 18.2143L19.409 17.4064V16.3795C20.5761 15.5836 21.2078 14.4561 21.3453 13.1899C21.9509 13.1418 22.4293 12.6336 22.4293 12.0158V11.1729C23.4168 10.7435 23.2833 9.3024 22.2385 9.0593V8.73373C22.2385 5.80902 19.8675 3.43781 16.9426 3.43781H16.4987C13.5737 3.43781 11.2027 5.80902 11.2027 8.73373V9.05908C10.1583 9.30219 10.0244 10.7435 11.0122 11.1729V12.0156C11.0122 12.6336 11.4903 13.1418 12.0961 13.1897C12.233 14.4501 12.857 15.5778 14.0324 16.3795V17.4062L9.87677 18.2143C9.39953 18.3073 8.93106 18.4442 8.48437 18.6364C6.79825 19.3621 5.97559 20.5206 5.97559 22.157V22.9995C5.97559 23.5417 6.79568 23.5425 6.79568 22.9995V22.1572C6.79568 20.9282 7.35409 20.0784 8.57901 19.4914C8.62836 19.7097 9.37988 21.7496 9.37988 24.5997V27.1799H7.64676C7.17679 27.1799 6.79568 26.7988 6.79568 26.3288V24.6313C6.79568 24.0892 5.97559 24.0883 5.97559 24.6313V26.3288C5.97559 27.2519 6.72369 28 7.64676 28H25.7947C26.7177 28 27.4658 27.2519 27.4658 26.3288V22.1572C27.4658 20.5206 26.643 19.3621 24.9571 18.6364V18.6364ZM24.0976 19.1865C24.0406 19.4369 23.2412 21.5889 23.2412 24.5997V27.1799H17.1308V25.1135C17.1308 24.4991 17.3177 23.9087 17.6712 23.4062C18.2008 22.6532 20.3821 19.5059 21.029 18.557C23.9731 19.1498 23.6181 19.0269 24.0976 19.1865V19.1865ZM16.441 22.9341C16.1263 22.4868 15.7176 21.8998 15.291 21.2845C15.4177 21.2565 15.5414 21.2078 15.6574 21.1384L16.7206 20.5007L17.7838 21.1384C17.8998 21.2078 18.0235 21.2565 18.1502 21.2845C17.724 21.8995 17.3153 22.4864 17.0005 22.9341C16.8956 23.0832 16.8022 23.2383 16.7206 23.3983C16.6392 23.2383 16.5459 23.0832 16.441 22.9341ZM15.8834 20.0464C15.234 20.3941 15.2801 20.4982 14.9851 20.4631C14.8016 20.4413 14.6369 20.3392 14.5318 20.1871C14.0416 19.4771 13.5876 18.8182 13.2905 18.3861L14.1118 18.2265C14.3772 19.0323 15.2515 19.6732 15.8834 20.0464V20.0464ZM20.151 18.3863C19.853 18.8193 19.3979 19.48 18.9064 20.1918C18.7058 20.4819 18.3463 20.5191 18.2057 20.4347L17.5578 20.0464C18.1899 19.6732 19.064 19.0323 19.3294 18.2265L20.151 18.3863ZM14.3319 4.81845V5.33286C14.3319 5.87503 15.152 5.87589 15.152 5.33286V4.46512C15.52 4.34869 15.9086 4.27884 16.3107 4.26218V6.2901C16.3107 6.83228 17.1308 6.83313 17.1308 6.2901V4.26218C17.5328 4.27884 17.9214 4.34891 18.2892 4.46512V5.33286C18.2892 5.87503 19.1096 5.87589 19.1096 5.33286V4.81866C21.6735 6.2431 21.4009 8.96552 21.4184 9.03046H12.023C12.0371 8.97769 11.7812 6.23584 14.3319 4.81845V4.81845ZM11.4561 9.85056H21.9853C22.3786 9.85056 22.378 10.4446 21.9853 10.4446H11.4561C11.0628 10.4446 11.0634 9.85056 11.4561 9.85056V9.85056ZM12.8903 12.7746C12.8854 12.5516 12.7034 12.3734 12.4802 12.3734C12.4118 12.3564 11.8325 12.4798 11.8325 12.0158V11.265H21.6092V12.0158C21.6092 12.4792 21.014 12.3602 20.9612 12.3734C20.738 12.3734 20.5558 12.5516 20.5511 12.7746C20.5291 13.8 20.0935 14.7524 19.3556 15.3875C17.7894 16.7361 15.6523 16.7363 14.0858 15.3875C13.3479 14.7524 12.9121 13.7998 12.8903 12.7746V12.7746ZM18.5887 16.8324V17.7444C18.5887 18.4777 17.3442 19.2542 16.7206 19.5681C16.0977 19.2545 14.8559 18.4799 14.8525 17.7473C14.8525 17.7465 14.8525 17.7454 14.8525 17.7444V16.8324C16.0462 17.3472 17.3937 17.3479 18.5887 16.8324V16.8324ZM9.34378 19.1865C9.82272 19.0274 9.46683 19.15 12.4123 18.557L12.6466 18.8975C12.8856 19.2451 13.2165 19.7255 13.5833 20.257C14.2524 21.2268 15.1753 22.5605 15.7702 23.406C16.1237 23.9087 16.3107 24.4989 16.3107 25.1135V27.1797H10.2002V24.5995C10.2002 21.5114 9.42026 19.5232 9.34378 19.1865V19.1865ZM26.6455 26.3288C26.6455 26.7979 26.264 27.1797 25.7947 27.1797H24.0615V24.5997C24.0615 21.8278 24.8321 19.6255 24.8626 19.4914C26.0873 20.0784 26.6457 20.9282 26.6457 22.1572V26.3288H26.6455Z" fill="white"/>
<path d="M18.9562 23.7226C18.5695 23.7226 18.2549 24.0373 18.2549 24.4239V25.2457C18.2549 25.6326 18.5695 25.9471 18.9562 25.9471H21.3682C21.7549 25.9471 22.0695 25.6326 22.0695 25.2457V24.4239C22.0695 24.0373 21.7549 23.7226 21.3682 23.7226H18.9562ZM21.2492 25.1267H19.0752V24.5429H21.2492V25.1267Z" fill="white"/>
</svg>
