<svg width="28" height="28" viewBox="0 0 28 28" fill="none" xmlns="http://www.w3.org/2000/svg">
<path d="M25.6099 0.41046L0.41816 25.6022C0.0597457 25.9547 -0.0820127 26.4725 0.0466796 26.9584C0.175427 27.4444 0.554889 27.824 1.04085 27.9528C1.52675 28.0817 2.04447 27.94 2.39709 27.5817L27.5889 2.38988C27.8514 2.12742 27.9989 1.77141 27.9989 1.4002C27.9989 1.02899 27.8514 0.672984 27.5889 0.410515C27.035 -0.117868 26.1638 -0.117868 25.6099 0.41046V0.41046ZM26.9292 1.72975L1.73745 26.9215C1.55277 27.0975 1.26248 27.0975 1.0778 26.9215C0.895699 26.7394 0.895699 26.444 1.0778 26.2619L26.2696 1.0701C26.4518 0.887945 26.7473 0.888054 26.9294 1.07032C27.1116 1.25259 27.1115 1.54803 26.9292 1.73019V1.72975Z" fill="white"/>
<path d="M9.01504 23.9563L12.8964 21.3532C12.9901 21.2901 13.0578 21.1954 13.0872 21.0863L13.689 18.8377C13.7558 18.5888 13.6081 18.333 13.3592 18.2663C13.1103 18.1995 12.8544 18.3472 12.7877 18.5961L12.2307 20.6758L8.49857 23.1805C7.85216 23.6154 7.67776 24.4904 8.10812 25.1399C8.31734 25.4513 8.6417 25.6669 9.00984 25.7392C9.37799 25.8114 9.7598 25.7345 10.0712 25.5252L11.1255 24.8198L10.7523 26.2115C10.6517 26.5732 10.7002 26.96 10.8869 27.2857C11.0736 27.6113 11.383 27.8486 11.746 27.9445C12.1085 28.042 12.495 27.9901 12.819 27.8004C13.1422 27.6152 13.3776 27.308 13.4721 26.9476L13.8453 25.5532L14.4028 26.6868C14.5772 27.049 14.9009 27.3172 15.2891 27.4211C15.6232 27.5235 15.9839 27.4924 16.2954 27.3343C16.6321 27.1695 16.8894 26.8776 17.0107 26.523C17.132 26.1684 17.1075 25.7801 16.9424 25.4436L14.9578 21.4068L15.902 17.887L18.4772 20.4621L18.7781 24.9528C18.8197 25.56 19.2454 26.0724 19.8348 26.2245C19.9783 26.2614 20.1269 26.2748 20.2747 26.2642C20.6495 26.2406 20.9993 26.0685 21.2468 25.7861C21.4942 25.5038 21.6189 25.1343 21.5931 24.7597L21.5081 23.5001L22.5284 24.5203C23.0819 25.0682 23.9734 25.0682 24.527 24.5203C25.0779 23.968 25.0779 23.074 24.527 22.5218L23.5073 21.5016L24.7669 21.5865C25.2699 21.6213 25.7533 21.3851 26.035 20.9669C26.3166 20.5487 26.3538 20.012 26.1324 19.559C25.9111 19.1059 25.4649 18.8054 24.9619 18.7706L20.4712 18.4697L17.896 15.8945L21.4159 14.9503L25.4498 16.9335C25.533 16.9768 25.621 17.0102 25.712 17.0329C26.4152 17.2206 27.1459 16.8432 27.3997 16.161C27.6536 15.4789 27.3475 14.7156 26.6926 14.398L25.559 13.8405L26.9506 13.4673C27.3128 13.3709 27.6218 13.1346 27.8096 12.8103C27.9974 12.4861 28.0488 12.1005 27.9522 11.7384C27.8556 11.3733 27.616 11.0625 27.2874 10.8762C26.9653 10.6905 26.5821 10.642 26.2238 10.7414L24.828 11.1147L25.5338 10.0594C25.8239 9.64092 25.8661 9.09854 25.6441 8.64019C25.4221 8.1819 24.9704 7.87875 24.4621 7.84693C23.9539 7.81517 23.4679 8.05965 23.1906 8.48673L20.6835 12.223L18.6038 12.7796C18.3549 12.8463 18.2072 13.1022 18.2739 13.351C18.3407 13.5999 18.5966 13.7476 18.8454 13.6808L21.094 13.079C21.203 13.0496 21.2978 12.9819 21.3609 12.8882L23.9645 9.00593C24.0342 8.9002 24.1431 8.82656 24.2672 8.80147C24.3913 8.77632 24.5202 8.80174 24.6255 8.87205C24.8449 9.02211 24.903 9.3205 24.7561 9.54197L23.3612 11.6273C23.2532 11.7888 23.2565 12.0004 23.3697 12.1583C23.4829 12.3163 23.6821 12.3876 23.8698 12.3373L26.4678 11.6413C26.5873 11.6079 26.7152 11.6238 26.8228 11.6856C26.9342 11.7491 27.0156 11.8545 27.0488 11.9783C27.082 12.1021 27.0643 12.2341 26.9996 12.3448C26.9372 12.454 26.8335 12.5334 26.7118 12.565L24.118 13.2602C23.9301 13.3104 23.793 13.472 23.7741 13.6655C23.7552 13.8591 23.8584 14.0441 24.0331 14.1297L26.2803 15.2344C26.5062 15.3424 26.6109 15.6061 26.5205 15.8396C26.4302 16.0731 26.1752 16.1977 25.9355 16.1255C25.9102 16.1184 25.8858 16.1084 25.8628 16.0957L21.6693 14.0341C21.5679 13.9842 21.4518 13.9728 21.3427 14.0019L16.8735 15.2009C16.7126 15.2441 16.5868 15.3698 16.5438 15.5308C16.5006 15.6918 16.5467 15.8635 16.6645 15.9814L19.9348 19.2517C20.0146 19.3316 20.1207 19.3798 20.2334 19.3874L24.8962 19.7C25.0235 19.7087 25.1421 19.7676 25.226 19.8637C25.3094 19.9583 25.351 20.0827 25.3413 20.2085C25.334 20.3358 25.2757 20.4548 25.1795 20.5386C25.0834 20.6223 24.9575 20.6637 24.8304 20.6535L22.3299 20.4861C22.137 20.4742 21.9566 20.5825 21.8765 20.7584C21.7964 20.9343 21.8331 21.1415 21.9688 21.2792L23.8675 23.1779C24.0215 23.3308 24.0534 23.5682 23.9452 23.7562C23.837 23.9444 23.6158 24.0361 23.4062 23.9798C23.3243 23.9581 23.2493 23.9159 23.1883 23.8571L21.2896 21.9584C21.1519 21.8227 20.9448 21.786 20.7688 21.8661C20.5929 21.9462 20.4846 22.1265 20.4965 22.3195L20.6639 24.8219C20.6736 24.9485 20.6317 25.0736 20.5478 25.169C20.4611 25.2673 20.3381 25.326 20.2072 25.3318C20.159 25.3345 20.1107 25.3296 20.064 25.3173C19.8653 25.2665 19.7223 25.0929 19.7104 24.8881L19.3978 20.223C19.3902 20.1103 19.342 20.0043 19.2621 19.9244L15.9918 16.6542C15.874 16.5363 15.7022 16.4903 15.5412 16.5334C15.3802 16.5765 15.2545 16.7022 15.2113 16.8632L14.0123 21.3324C13.9831 21.4415 13.9946 21.5575 14.0445 21.6589L16.1028 25.8547C16.1591 25.969 16.1674 26.101 16.1261 26.2214C16.0857 26.3419 15.9984 26.4409 15.884 26.4962C15.7788 26.5494 15.6569 26.5587 15.5448 26.5223C15.412 26.4885 15.3011 26.3974 15.2421 26.2737L14.1379 24.026C14.0522 23.8513 13.8672 23.7482 13.6737 23.767C13.4801 23.7859 13.3185 23.9229 13.2683 24.1109L12.5727 26.7075C12.5406 26.8281 12.4614 26.9308 12.353 26.9926C12.2424 27.0569 12.1108 27.0748 11.987 27.042C11.8633 27.0093 11.7577 26.9287 11.6934 26.8181C11.6307 26.7084 11.6152 26.5779 11.6504 26.4565L12.3456 23.8627C12.3959 23.6751 12.3246 23.4758 12.1666 23.3627C12.0086 23.2495 11.797 23.2462 11.6355 23.3542L9.55069 24.7486C9.43731 24.8247 9.29724 24.8499 9.16439 24.8181C9.0509 24.7884 8.95167 24.7193 8.88449 24.6231C8.81232 24.5177 8.78548 24.3877 8.81008 24.2624C8.83457 24.137 8.90843 24.0267 9.01504 23.9563V23.9563Z" fill="white"/>
<path d="M7.82715 13.0627C7.82649 13.8903 8.02352 14.706 8.40189 15.442C8.52042 15.6707 8.80196 15.7601 9.03076 15.6416C9.25955 15.5231 9.34894 15.2415 9.23041 15.0127C8.92049 14.4095 8.75921 13.7409 8.76014 13.0627C8.76271 10.6831 10.6911 8.75471 13.0707 8.75215C13.7489 8.75122 14.4175 8.91244 15.0207 9.22241C15.2495 9.34094 15.5311 9.25155 15.6496 9.02276C15.7681 8.79397 15.6788 8.51242 15.45 8.3939C14.714 8.01553 13.8983 7.8185 13.0707 7.81915C10.1761 7.82222 7.83021 10.1681 7.82715 13.0627V13.0627Z" fill="white"/>
<path d="M12.6043 6.14529H13.542C14.009 6.14179 14.3969 5.78387 14.4378 5.31863L14.7998 0.9754C14.8205 0.724411 14.7352 0.476156 14.5646 0.290936C14.394 0.10566 14.1536 0.000311626 13.9017 0.000366296H12.24C11.9881 0.000256957 11.7476 0.105715 11.5769 0.291045C11.4063 0.476375 11.3211 0.72474 11.342 0.975837L11.704 5.31907C11.7452 5.78595 12.1357 6.14425 12.6043 6.14529ZM13.8667 0.933414L13.5103 5.21323L12.6338 5.24215L12.275 0.933414H13.8667Z" fill="white"/>
<path d="M0.909097 14.7945C0.933972 14.7945 0.958682 14.7935 0.983284 14.7917L5.32652 14.4297C5.79247 14.3885 6.15044 13.9993 6.15274 13.5316V12.5962C6.15165 12.1275 5.79307 11.7369 5.32608 11.6959L0.982846 11.3339C0.731858 11.3131 0.483603 11.3984 0.298382 11.5691C0.113161 11.7397 0.00775792 11.9801 0.00781259 12.2319V13.8937C0.00770326 14.1327 0.10261 14.362 0.271703 14.531C0.440742 14.6999 0.670081 14.7947 0.909097 14.7945V14.7945ZM0.94086 12.2664L5.21975 12.593V13.5013L0.94086 13.8586V12.2664Z" fill="white"/>
<path d="M8.52414 1.73118C8.41671 1.5032 8.21875 1.33061 7.97832 1.25528C7.73782 1.17994 7.47683 1.2087 7.25853 1.3346L5.81979 2.16591C5.60149 2.29187 5.44596 2.50349 5.39091 2.7494C5.33585 2.9953 5.38631 3.25307 5.53009 3.46005L8.01522 7.04009C8.28354 7.42288 8.79918 7.53851 9.20532 7.30693L10.018 6.83759C10.423 6.60169 10.581 6.09578 10.3824 5.67132L8.52414 1.73118ZM8.78163 6.50826L6.31608 2.95621L7.69513 2.16033L9.52481 6.04548L8.78163 6.50826Z" fill="white"/>
<path d="M6.84528 16.1152C6.60955 15.71 6.10347 15.5519 5.67901 15.7508L1.73881 17.6089C1.51083 17.7163 1.33824 17.9143 1.26291 18.1547C1.18757 18.3952 1.21633 18.6563 1.34223 18.8745L2.17354 20.3133C2.2995 20.5315 2.51107 20.6871 2.75703 20.7421C3.00299 20.7972 3.2607 20.7467 3.46768 20.6029L7.04772 18.1178C7.43052 17.8495 7.54615 17.3339 7.31457 16.9277L6.84528 16.1152ZM2.96384 19.817L2.16796 18.4379L6.03721 16.5817L6.49113 17.3682L2.96384 19.817Z" fill="white"/>
<path d="M16.1229 6.8376L16.9355 7.30694C17.3416 7.53852 17.8573 7.4229 18.1256 7.0401L20.6112 3.45962C20.7546 3.25259 20.8049 2.99493 20.7497 2.74919C20.6946 2.50345 20.5391 2.29193 20.3211 2.16597L18.8819 1.33466C18.6636 1.20876 18.4027 1.18 18.1623 1.25534C17.9219 1.33067 17.724 1.50327 17.6167 1.73118L15.7585 5.67325C15.5612 6.09716 15.7191 6.60165 16.1229 6.8376V6.8376ZM18.4456 2.16029L19.8247 2.95617L17.3755 6.48487L16.6024 6.07152L18.4456 2.16029Z" fill="white"/>
<path d="M2.7567 5.3835C2.51096 5.43866 2.2995 5.59414 2.17354 5.81221L1.34223 7.25139C1.21633 7.46963 1.18757 7.73057 1.26291 7.97101C1.33824 8.21139 1.51083 8.4093 1.73875 8.51661L5.68082 10.3747C5.79989 10.4307 5.92989 10.4597 6.06148 10.4596C6.38409 10.4601 6.68258 10.289 6.84523 10.0104L7.31172 9.19813C7.54369 8.79204 7.42828 8.27607 7.04532 8.00758L3.46713 5.52197C3.25983 5.37939 3.00255 5.32921 2.7567 5.3835V5.3835ZM6.05219 9.51729L2.16796 7.6876L2.96428 6.30856L6.50606 8.73119L6.05219 9.51729Z" fill="white"/>
</svg>
