<?xml version="1.0" standalone="no"?>
<!DOCTYPE svg PUBLIC "-//W3C//DTD SVG 20010904//EN"
 "http://www.w3.org/TR/2001/REC-SVG-20010904/DTD/svg10.dtd">
<svg version="1.0" xmlns="http://www.w3.org/2000/svg"
 width="337.000000pt" height="204.000000pt" viewBox="0 0 337.000000 204.000000"
 preserveAspectRatio="xMidYMid meet">

<g transform="translate(0.000000,204.000000) scale(0.100000,-0.100000)"
fill="#000000" stroke="none">
<path d="M944 1305 c-4 -9 0 -23 8 -31 20 -20 50 -7 46 20 -4 26 -45 35 -54
11z"/>
<path d="M1407 1314 c-12 -13 -8 -42 8 -48 25 -9 46 5 43 28 -3 21 -37 34 -51
20z"/>
<path d="M760 1297 c-59 -30 -48 -106 21 -139 19 -9 42 -24 49 -33 12 -15 12
-19 -5 -32 -19 -13 -36 -12 -87 3 -14 4 -18 -1 -18 -19 0 -30 16 -37 79 -37
122 0 140 109 26 161 -18 9 -31 23 -33 37 -4 23 3 26 66 22 30 -1 33 1 30 22
-3 20 -9 23 -53 26 -27 1 -61 -4 -75 -11z"/>
<path d="M1677 1304 c-4 -4 -7 -48 -7 -99 0 -97 -7 -115 -46 -115 -27 0 -36
-12 -28 -34 10 -27 76 -21 105 10 22 24 24 33 24 132 0 100 -1 107 -20 110
-12 2 -24 0 -28 -4z"/>
<path d="M944 1217 c-3 -8 -4 -49 -2 -93 3 -78 3 -79 31 -82 l27 -3 0 95 0 96
-25 0 c-14 0 -28 -6 -31 -13z"/>
<path d="M1052 1137 c3 -91 3 -92 28 -92 24 0 25 3 28 67 2 57 6 68 23 73 31
10 38 -3 41 -75 3 -62 4 -65 28 -65 24 0 25 3 28 62 3 63 19 90 46 80 11 -4
16 -26 18 -74 3 -66 4 -68 31 -71 l27 -3 0 76 c0 97 -9 115 -58 115 -21 0 -43
-5 -50 -12 -8 -8 -15 -8 -24 0 -8 6 -48 11 -91 10 l-78 0 3 -91z"/>
<path d="M1402 1138 c3 -92 3 -93 28 -93 25 0 25 1 28 93 l3 92 -31 0 -31 0 3
-92z"/>
<path d="M1797 1223 c-4 -3 -7 -13 -7 -21 0 -11 8 -13 33 -10 39 6 57 1 57
-18 0 -8 -10 -14 -25 -14 -63 0 -99 -45 -77 -96 11 -22 16 -23 84 -21 l73 2 0
78 c0 66 -3 81 -19 93 -20 14 -107 20 -119 7z m81 -115 c-3 -25 -34 -36 -51
-19 -14 14 9 41 35 41 14 0 19 -6 16 -22z"/>
<path d="M1990 1135 c0 -94 0 -95 25 -95 28 0 33 14 37 95 3 43 6 50 25 53 25
4 31 -12 35 -93 3 -46 5 -50 28 -50 24 0 25 3 30 70 5 67 6 70 30 70 24 0 25
-3 30 -70 5 -67 6 -70 30 -70 24 0 25 3 28 65 3 82 -12 114 -55 118 -18 2 -42
-2 -54 -8 -15 -9 -24 -9 -32 -1 -14 14 -70 14 -84 0 -8 -8 -13 -8 -17 0 -4 6
-18 11 -32 11 -24 0 -24 -1 -24 -95z"/>
<path d="M2361 1213 c-44 -37 -43 -126 1 -158 23 -15 83 -20 112 -9 9 3 16 14
16 23 0 12 -10 16 -47 16 -37 0 -48 4 -51 18 -3 14 5 17 52 17 30 0 58 5 61
10 10 16 -15 79 -35 90 -29 16 -86 12 -109 -7z m77 -25 c19 -19 14 -28 -18
-28 -16 0 -30 4 -30 8 0 9 21 32 30 32 3 0 11 -5 18 -12z"/>
<path d="M2547 1212 c-34 -37 -17 -73 46 -100 37 -16 24 -34 -22 -30 -30 2
-36 0 -36 -17 0 -16 8 -21 43 -23 61 -4 94 19 90 61 -2 26 -10 35 -40 50 -21
9 -38 21 -38 26 0 13 25 20 49 14 16 -4 21 -1 21 16 0 18 -6 21 -48 21 -35 0
-54 -5 -65 -18z"/>
<path d="M1701 768 c-6 -17 -18 -28 -29 -28 -26 0 -42 -20 -42 -52 0 -34 27
-50 66 -39 27 7 29 11 32 59 2 29 -1 60 -7 69 -9 16 -11 15 -20 -9z m-6 -74
c0 -10 -8 -20 -17 -22 -18 -3 -26 27 -11 42 12 11 28 0 28 -20z"/>
<path d="M982 718 c-24 -66 -22 -79 8 -60 24 15 60 16 60 2 0 -5 7 -10 15 -10
20 0 19 9 -6 75 -28 75 -48 74 -77 -7z m48 -3 c0 -8 -4 -15 -10 -15 -5 0 -10
7 -10 15 0 8 5 15 10 15 6 0 10 -7 10 -15z"/>
<path d="M1100 770 c0 -5 7 -10 15 -10 8 0 15 5 15 10 0 6 -7 10 -15 10 -8 0
-15 -4 -15 -10z"/>
<path d="M1300 760 c-22 -22 -26 -60 -10 -90 11 -20 50 -33 74 -24 24 9 19 24
-8 24 -13 0 -29 7 -36 15 -15 19 -5 65 15 66 8 1 20 2 27 3 6 0 13 7 16 14 6
20 -56 14 -78 -8z"/>
<path d="M1750 770 c0 -5 7 -10 15 -10 8 0 15 5 15 10 0 6 -7 10 -15 10 -8 0
-15 -4 -15 -10z"/>
<path d="M1880 770 c0 -5 7 -10 15 -10 8 0 15 5 15 10 0 6 -7 10 -15 10 -8 0
-15 -4 -15 -10z"/>
<path d="M2170 770 c0 -5 5 -10 10 -10 6 0 10 5 10 10 0 6 -4 10 -10 10 -5 0
-10 -4 -10 -10z"/>
<path d="M1812 754 c-21 -43 12 -134 39 -107 7 7 7 17 -2 31 -10 17 -10 23 1
37 11 14 10 19 -7 37 -20 20 -21 20 -31 2z"/>
<path d="M1100 695 c0 -33 4 -45 15 -45 11 0 15 12 15 45 0 33 -4 45 -15 45
-11 0 -15 -12 -15 -45z"/>
<path d="M1154 726 c-3 -8 -4 -27 -2 -42 4 -35 28 -45 28 -11 0 13 7 30 15 37
8 7 15 16 15 21 0 15 -50 10 -56 -5z"/>
<path d="M1412 728 c-7 -7 -12 -25 -12 -40 0 -40 39 -58 75 -34 27 18 31 36
15 67 -12 22 -59 26 -78 7z m53 -34 c0 -10 -8 -20 -17 -22 -18 -3 -26 27 -11
42 12 11 28 0 28 -20z"/>
<path d="M1520 695 c0 -53 21 -59 30 -9 7 39 24 37 28 -3 2 -21 9 -33 18 -33
12 0 14 10 12 43 -3 42 -3 42 -45 45 l-43 3 0 -46z"/>
<path d="M1750 695 c0 -33 4 -45 15 -45 11 0 15 12 15 45 0 33 -4 45 -15 45
-11 0 -15 -12 -15 -45z"/>
<path d="M1880 695 c0 -33 4 -45 15 -45 11 0 15 12 15 45 0 33 -4 45 -15 45
-11 0 -15 -12 -15 -45z"/>
<path d="M1942 728 c-20 -20 -14 -56 13 -74 23 -15 27 -15 50 0 27 18 33 54
13 74 -15 15 -61 15 -76 0z m53 -34 c0 -10 -8 -20 -17 -22 -18 -3 -26 27 -11
42 12 11 28 0 28 -20z"/>
<path d="M2050 696 c0 -33 4 -46 14 -46 9 0 16 12 18 33 4 40 21 42 28 3 3
-16 11 -31 18 -34 10 -3 12 7 10 39 -3 44 -3 44 -45 47 l-43 3 0 -45z"/>
<path d="M2170 695 c0 -33 4 -45 13 -42 7 2 12 20 12 42 0 22 -5 40 -12 43 -9
2 -13 -10 -13 -43z"/>
<path d="M2220 696 c0 -33 4 -46 14 -46 9 0 16 12 18 32 4 46 28 49 28 4 0
-26 4 -36 16 -36 12 0 14 9 12 43 -3 42 -3 42 -45 45 l-43 3 0 -45z"/>
<path d="M2342 728 c-28 -28 1 -97 35 -84 9 4 13 1 10 -6 -2 -7 -14 -13 -26
-12 -11 0 -21 -5 -21 -13 0 -20 48 -15 71 8 16 16 19 30 17 67 -3 46 -4 47
-38 50 -19 2 -41 -3 -48 -10z m55 -24 c8 -21 -13 -42 -28 -27 -13 13 -5 43 11
43 6 0 13 -7 17 -16z"/>
</g>
</svg>
