<?xml version="1.0" standalone="no"?>
<!DOCTYPE svg PUBLIC "-//W3C//DTD SVG 20010904//EN"
 "http://www.w3.org/TR/2001/REC-SVG-20010904/DTD/svg10.dtd">
<svg version="1.0" xmlns="http://www.w3.org/2000/svg"
 width="334.000000pt" height="205.000000pt" viewBox="0 0 334.000000 205.000000"
 preserveAspectRatio="xMidYMid meet">

<g transform="translate(0.000000,205.000000) scale(0.100000,-0.100000)"
fill="#000000" stroke="none">
<path d="M1593 1889 c-29 -5 -223 -61 -430 -125 -208 -64 -405 -124 -438 -134
-198 -60 -333 -104 -356 -115 -40 -21 -97 -90 -108 -132 -14 -51 -14 -625 0
-676 11 -42 68 -111 108 -132 22 -11 315 -104 471 -150 25 -7 191 -58 370
-113 383 -118 434 -129 533 -113 39 7 267 72 507 146 632 194 702 216 731 230
40 21 97 90 108 132 14 51 14 625 0 676 -11 42 -68 111 -108 132 -23 11 -154
54 -356 115 -33 10 -215 66 -405 125 -190 59 -369 113 -398 120 -77 19 -169
25 -229 14z m-613 -554 c17 -21 5 -45 -24 -45 -29 0 -40 24 -20 45 19 19 28
19 44 0z m455 -1 c19 -19 4 -44 -27 -44 -24 0 -34 26 -18 45 16 19 25 19 45
-1z m-570 -8 c11 -8 16 -19 12 -30 -5 -13 -15 -15 -44 -11 -75 11 -83 -29 -14
-64 22 -12 47 -31 55 -43 46 -66 -30 -132 -129 -114 -31 6 -35 11 -35 37 0 27
2 29 20 19 12 -6 35 -10 53 -8 44 4 48 33 7 56 -77 42 -95 72 -74 127 15 37
112 58 149 31z m845 -102 c0 -104 0 -106 -30 -135 -23 -24 -37 -30 -62 -27
-28 2 -33 7 -33 28 0 15 5 24 13 22 7 -1 22 2 32 8 18 9 20 22 20 104 0 51 3
96 7 99 3 4 17 7 30 7 23 0 23 -2 23 -106z m-495 25 c11 0 34 3 50 6 51 11 67
-11 73 -96 3 -58 1 -77 -11 -87 -30 -25 -46 -4 -49 66 -3 64 -4 67 -28 67 -24
0 -25 -3 -28 -62 -3 -64 -17 -88 -46 -77 -11 4 -16 19 -16 53 0 69 -9 91 -35
91 -26 0 -35 -22 -35 -91 0 -34 -5 -49 -16 -53 -33 -13 -44 13 -44 101 l0 84
45 -2 c24 -2 48 1 52 5 4 4 21 5 38 1 16 -3 39 -6 50 -6z m682 -4 c28 -20 44
-149 20 -172 -11 -11 -20 -12 -33 -5 -12 7 -25 7 -40 0 -54 -25 -110 25 -86
77 7 14 23 27 39 30 15 4 39 11 52 16 36 15 7 31 -41 23 -31 -5 -38 -3 -38 10
0 33 89 48 127 21z m233 3 c16 -10 24 -10 40 0 27 17 60 15 82 -5 14 -13 18
-31 18 -94 0 -82 -7 -97 -40 -79 -17 9 -20 21 -20 75 0 62 -1 65 -24 65 -29 0
-36 -16 -36 -85 0 -40 -4 -54 -16 -59 -31 -12 -44 13 -44 81 0 64 0 64 -27 61
-27 -3 -28 -5 -31 -70 -3 -68 -14 -84 -47 -72 -12 5 -15 25 -15 96 l0 91 39
-6 c21 -2 45 -1 52 4 20 12 46 11 69 -3z m336 -13 c19 -19 24 -34 22 -58 -3
-32 -4 -32 -60 -35 -32 -2 -58 -7 -58 -12 0 -17 42 -32 71 -26 16 3 31 1 35
-6 11 -17 -26 -38 -69 -38 -55 0 -97 43 -97 100 0 86 98 133 156 75z m173 16
c22 -14 7 -35 -25 -35 -43 -1 -42 -18 2 -41 51 -26 57 -63 18 -94 -38 -30
-108 -26 -112 5 -3 19 2 21 34 20 50 -1 52 15 6 39 -70 37 -48 115 33 115 16
0 36 -4 44 -9z m-1659 -90 c0 -72 -3 -90 -16 -95 -29 -11 -34 4 -34 95 0 88 0
89 25 89 25 0 25 -1 25 -89z m460 0 c0 -73 -3 -90 -16 -95 -33 -13 -44 13 -44
100 l0 84 30 0 30 0 0 -89z m258 -238 c5 -17 -26 -29 -40 -15 -6 6 -7 15 -3
22 9 14 37 9 43 -7z m-654 -176 c10 -28 21 -58 23 -64 3 -7 -2 -13 -11 -13 -9
0 -19 7 -22 15 -8 20 -44 19 -60 -2 -33 -47 -23 50 12 104 20 32 37 20 58 -40z
m66 48 c0 -8 -4 -15 -10 -15 -5 0 -10 7 -10 15 0 8 5 15 10 15 6 0 10 -7 10
-15z m248 -2 c2 -8 -6 -13 -22 -13 -32 0 -51 -31 -36 -60 6 -12 21 -20 35 -20
16 0 25 -6 25 -15 0 -22 -56 -19 -80 5 -27 27 -25 66 5 96 26 26 65 30 73 7z
m352 -53 l0 -70 -40 0 c-33 0 -42 4 -52 25 -9 19 -8 29 6 50 9 14 25 25 35 25
10 0 21 9 24 20 3 11 10 20 16 20 7 0 11 -26 11 -70z m50 55 c0 -8 -4 -15 -10
-15 -5 0 -10 7 -10 15 0 8 5 15 10 15 6 0 10 -7 10 -15z m130 0 c0 -8 -4 -15
-10 -15 -5 0 -10 7 -10 15 0 8 5 15 10 15 6 0 10 -7 10 -15z m290 7 c0 -13
-12 -22 -22 -16 -10 6 -1 24 13 24 5 0 9 -4 9 -8z m-349 -28 c14 -13 16 -20 6
-34 -8 -14 -8 -25 1 -44 10 -23 9 -26 -9 -26 -11 0 -21 6 -23 13 -2 6 -7 26
-13 42 -7 21 -6 36 1 48 13 21 15 21 37 1z m-631 -24 c0 -4 -6 -10 -14 -13 -8
-3 -16 -18 -18 -33 -5 -48 -28 -41 -28 9 0 24 2 46 5 49 8 7 55 -3 55 -12z
m264 7 c22 -16 18 -65 -5 -80 -47 -29 -101 32 -64 73 21 23 44 25 69 7z m127
-8 c13 -25 8 -71 -8 -76 -7 -3 -13 9 -15 29 -2 21 -8 33 -18 33 -10 0 -16 -12
-18 -33 -4 -42 -26 -37 -30 7 -5 47 1 56 42 58 27 1 39 -3 47 -18z m177 -34
c-4 -56 -28 -58 -28 -2 0 24 3 47 7 51 13 13 24 -12 21 -49z m122 -1 c0 -32
-4 -44 -12 -42 -14 5 -23 61 -14 85 11 27 26 2 26 -43z m116 31 c15 -23 15
-27 0 -50 -16 -24 -50 -33 -72 -17 -20 14 -25 45 -9 68 21 32 60 31 81 -1z
m113 11 c15 -18 10 -78 -6 -84 -9 -2 -13 8 -13 32 0 24 -5 36 -14 36 -15 0
-26 -21 -26 -51 0 -27 -18 -24 -26 5 -9 38 -1 60 26 67 39 11 47 10 59 -5z
m171 -6 c14 -26 9 -72 -7 -78 -9 -2 -13 8 -13 32 0 24 -5 36 -14 36 -15 0 -26
-21 -26 -51 0 -27 -18 -24 -26 5 -9 38 -1 60 26 67 41 11 49 10 60 -11z m118
-39 c2 -30 -2 -59 -9 -67 -13 -16 -69 -19 -69 -4 0 6 9 10 19 10 11 0 23 5 26
10 4 6 -5 10 -20 10 -37 0 -54 40 -31 75 14 21 24 25 49 22 31 -3 32 -5 35
-56z m-1298 4 c0 -45 -12 -60 -24 -29 -12 31 -7 74 9 74 11 0 15 -12 15 -45z
m1070 -1 c0 -59 -24 -55 -28 4 -2 33 0 42 12 42 12 0 16 -11 16 -46z"/>
<path d="M1814 1135 c-13 -34 28 -49 46 -16 14 28 13 31 -15 31 -14 0 -28 -7
-31 -15z"/>
<path d="M2382 1207 c-15 -17 -6 -27 25 -27 18 0 24 5 21 17 -4 22 -31 28 -46
10z"/>
<path d="M996 745 c-3 -9 0 -15 9 -15 9 0 12 6 9 15 -4 8 -7 15 -9 15 -2 0 -5
-7 -9 -15z"/>
<path d="M1645 730 c-8 -13 14 -42 26 -34 5 3 9 14 9 25 0 20 -24 26 -35 9z"/>
<path d="M1413 724 c-6 -16 15 -37 29 -28 4 3 8 14 8 25 0 23 -28 26 -37 3z"/>
<path d="M1950 721 c0 -11 4 -22 9 -25 12 -8 34 21 26 34 -11 17 -35 11 -35
-9z"/>
<path d="M2352 718 c2 -13 8 -23 13 -23 6 0 11 10 13 23 2 15 -2 22 -13 22
-11 0 -15 -7 -13 -22z"/>
</g>
</svg>
